# xmcd
#
# Track frame offsets: 
#        150
#        19089
#        36613
#        56230
#        73119
#        91304
#        107286
#        125965
#        144615
#        163862
#        182735
#        203139
#        220502
#        237456
#        256402
#        271268
#        286673
#        307765
#
# Disc length: 4285 seconds
#
# Revision: 0
# Processed by: cddbd v1.5.1PL0 Copyright (c) Steve Scherf et al.
# Submitted via: ExactAudioCopy v0.95a5
#
DISCID=0d10bb12
DTITLE=Various Artist - Best Duets of the 80s
DYEAR=1990
DGENRE=Blues
TTITLE0=David Eldon Lasley and Alta Sherral Willis - Come What May
TTITLE1=Joe Cocker and Jennifer Warnes - Up Where We Belong
TTITLE2=James Ingram and Patti Austin - How Do You Keep The Music Play
TTITLE2=ing
TTITLE3=Seals and Crofts - First Love
TTITLE4=Cliff Richards and Olivia Newton John - Suddenly
TTITLE5=Peabo Bryson and Roberta Flack - Tonight I Celebrate My Love
TTITLE6=Peter Cetera and Cher - After All
TTITLE7=Olivia Newton John and David Foster - The Best of Me
TTITLE8=Stacy Lattisaw and Johnny Gill - Perfect Combination
TTITLE9=Raoul and Christine - All I Ask of You
TTITLE10=Lionel Richie and Diana Ross - Endless Love
TTITLE11=Kenny Rogers and Sheena Easton - We've Got Tonight
TTITLE12=Peter Cetera and Amy Grant - Next Time I Fall
TTITLE13=Phil Collins and Marilyn Martin - Separate Lives
TTITLE14=Peabo Bryson and Roberta Flack - Maybe
TTITLE15=Barbra Streisand and Neil Diamond - You Don't Bring Me Flower
TTITLE15=s
TTITLE16=Barry Manilow and Dionne Warwick - Run To Me
TTITLE17=Johnny Mathis and Jane Olivor - The Last Time I Felt Like Thi
TTITLE17=s
EXTD=
EXTT0=
EXTT1=
EXTT2=
EXTT3=
EXTT4=
EXTT5=
EXTT6=
EXTT7=
EXTT8=
EXTT9=
EXTT10=
EXTT11=
EXTT12=
EXTT13=
EXTT14=
EXTT15=
EXTT16=
EXTT17=
PLAYORDER=
